<svg xmlns="http://www.w3.org/2000/svg" version="1.1" x="0px" y="0px" viewBox="0 0 51.4 51.4" enable-background="new 0 0 51.4 51.4" xml:space="preserve"><circle fill="#639F93" cx="25.7" cy="25.7" r="25.7"/><path fill="#FFFFFF" d="M22.5 39.1h-9.7V38c1-0.4 2.1-0.7 3.1-0.9V14.3c-1.2-0.2-2.2-0.5-3.1-1v-1.1h9.7v1.1c-0.4 0.2-0.9 0.4-1.4 0.6 -0.5 0.2-1 0.3-1.5 0.4v10h12v-10c-0.5-0.1-1-0.3-1.5-0.4 -0.5-0.2-0.9-0.3-1.4-0.5v-1.1h9.7v1.1c-0.5 0.3-1 0.5-1.5 0.6 -0.6 0.1-1.1 0.3-1.6 0.4v22.7c0.6 0.1 1.2 0.2 1.7 0.4 0.5 0.2 1 0.3 1.5 0.5v1.1h-9.7V38c0.9-0.4 1.9-0.7 2.9-0.9V26.3h-12v10.7c0.5 0.1 1 0.2 1.5 0.4 0.5 0.2 0.9 0.3 1.4 0.5V39.1z"/></svg>